<?xml version="1.0" encoding="utf-8"?>
<!-- Generator: Adobe Illustrator 16.0.4, SVG Export Plug-In . SVG Version: 6.00 Build 0)  -->
<!DOCTYPE svg PUBLIC "-//W3C//DTD SVG 1.1//EN" "http://www.w3.org/Graphics/SVG/1.1/DTD/svg11.dtd">
<svg version="1.1" id="Layer_1" xmlns="http://www.w3.org/2000/svg" xmlns:xlink="http://www.w3.org/1999/xlink" x="0px" y="0px"
	 width="500px" height="500px" viewBox="0 0 500 500" enable-background="new 0 0 500 500" xml:space="preserve">
<g>
	<g enable-background="new    ">
		<path fill="#FFFFFF" d="M312.838,379.158c0-15.561-5.493-27.508-16.479-35.842c-10.986-8.33-30.762-17.119-59.326-26.367
			c-28.564-9.244-51.181-18.355-67.84-27.329c-45.413-24.534-68.115-57.584-68.115-99.151c0-21.604,6.085-40.877,18.265-57.816
			c12.175-16.934,29.663-30.165,52.46-39.688c22.796-9.519,48.383-14.282,76.767-14.282c28.564,0,54.014,5.176,76.354,15.518
			c22.338,10.347,39.688,24.951,52.048,43.808c12.359,18.861,18.539,40.285,18.539,64.27h-82.396
			c0-18.308-5.769-32.547-17.304-42.709c-11.536-10.162-27.741-15.243-48.615-15.243c-20.145,0-35.8,4.257-46.966,12.771
			c-11.171,8.514-16.754,19.732-16.754,33.646c0,13.003,6.544,23.896,19.638,32.685c13.089,8.789,32.362,17.028,57.815,24.719
			c46.872,14.102,81.024,31.586,102.447,52.46c21.424,20.874,32.135,46.876,32.135,78.003c0,34.607-13.093,61.755-39.275,81.437
			c-26.188,19.685-61.434,29.525-105.744,29.525c-30.762,0-58.777-5.631-84.045-16.892s-44.542-26.685-57.815-46.279
			c-13.278-19.592-19.913-42.298-19.913-68.115h82.672c0,44.129,26.367,66.192,79.102,66.192c19.591,0,34.881-3.982,45.868-11.948
			C307.345,404.564,312.838,393.441,312.838,379.158z"/>
	</g>
</g>
</svg>
